<svg width="64" height="21" viewBox="0 0 64 21" fill="none" xmlns="http://www.w3.org/2000/svg">
<path d="M3.43966 9.99576C2.79525 9.99576 2.21779 9.88983 1.70728 9.67796C1.19677 9.4661 0.786687 9.15254 0.477034 8.73729C0.175749 8.32203 0.016738 7.82203 0 7.23729H2.28474C2.31822 7.56779 2.4312 7.82203 2.62368 8C2.81617 8.16949 3.06724 8.25424 3.3769 8.25424C3.69492 8.25424 3.94599 8.1822 4.13011 8.03813C4.31422 7.88559 4.40628 7.67796 4.40628 7.41525C4.40628 7.19491 4.33096 7.01271 4.18032 6.86864C4.03805 6.72457 3.85811 6.60593 3.64052 6.51271C3.43129 6.41949 3.13001 6.31356 2.73667 6.19491C2.16757 6.01695 1.70309 5.83898 1.34323 5.66102C0.983359 5.48305 0.673705 5.22034 0.414266 4.87288C0.154827 4.52542 0.025107 4.07203 0.025107 3.51271C0.025107 2.6822 0.322207 2.0339 0.916407 1.5678C1.51061 1.09322 2.28474 0.855932 3.23881 0.855932C4.20961 0.855932 4.99211 1.09322 5.58631 1.5678C6.18051 2.0339 6.49854 2.68644 6.54038 3.52542H4.21798C4.20124 3.23729 4.09663 3.01271 3.90414 2.85169C3.71166 2.6822 3.46477 2.59746 3.16349 2.59746C2.90405 2.59746 2.69482 2.66949 2.53581 2.81356C2.3768 2.94915 2.29729 3.1483 2.29729 3.41102C2.29729 3.69915 2.4312 3.92373 2.69901 4.08474C2.96681 4.24576 3.38526 4.41949 3.95436 4.60593C4.52345 4.80085 4.98375 4.98729 5.33524 5.16525C5.69511 5.34322 6.00477 5.60169 6.2642 5.94068C6.52364 6.27966 6.65336 6.7161 6.65336 7.25C6.65336 7.75847 6.52364 8.22034 6.2642 8.63559C6.01313 9.05085 5.6449 9.38135 5.15949 9.62712C4.67409 9.87288 4.10081 9.99576 3.43966 9.99576Z" fill="#222222"/>
<path d="M7.5476 6.37288C7.5476 5.66949 7.68988 5.04237 7.97442 4.49152C8.26734 3.94068 8.6565 3.51271 9.1419 3.20763C9.63567 2.89407 10.1713 2.73729 10.7488 2.73729C11.1923 2.73729 11.5898 2.8178 11.9413 2.97881C12.2928 3.13136 12.5774 3.34746 12.795 3.62712V2.81356H14.9416V13.2881H12.795V9.01695C12.5523 9.31356 12.2552 9.55085 11.9037 9.72881C11.5605 9.90678 11.1672 9.99576 10.7236 9.99576C10.1546 9.99576 9.6273 9.84322 9.1419 9.53813C8.6565 9.23305 8.26734 8.80508 7.97442 8.25424C7.68988 7.70339 7.5476 7.07627 7.5476 6.37288ZM12.795 6.36017C12.795 5.97881 12.7197 5.66102 12.569 5.40678C12.4267 5.14407 12.2384 4.94915 12.0041 4.82203C11.7698 4.68644 11.5229 4.61864 11.2634 4.61864C11.0124 4.61864 10.7697 4.68644 10.5353 4.82203C10.301 4.94915 10.1085 5.14407 9.95788 5.40678C9.80724 5.66949 9.73192 5.99152 9.73192 6.37288C9.73192 6.75424 9.80724 7.07627 9.95788 7.33898C10.1085 7.59322 10.301 7.78813 10.5353 7.92373C10.7697 8.05085 11.0124 8.11441 11.2634 8.11441C11.5145 8.11441 11.7572 8.05085 11.9915 7.92373C12.2343 7.78813 12.4267 7.58898 12.569 7.32627C12.7197 7.06356 12.795 6.74152 12.795 6.36017Z" fill="#222222"/>
<path d="M23.4116 2.81356V9.90678H21.265V8.94068C21.0474 9.25424 20.7503 9.50847 20.3737 9.70339C20.0054 9.88983 19.5954 9.98305 19.1434 9.98305C18.6078 9.98305 18.135 9.8644 17.7249 9.62712C17.3148 9.38135 16.9968 9.02966 16.7708 8.57203C16.5448 8.1144 16.4319 7.57627 16.4319 6.95763V2.81356H18.566V6.66525C18.566 7.13983 18.6873 7.50847 18.93 7.77118C19.1727 8.0339 19.4991 8.16525 19.9092 8.16525C20.3276 8.16525 20.6582 8.0339 20.9009 7.77118C21.1436 7.50847 21.265 7.13983 21.265 6.66525V2.81356H23.4116Z" fill="#222222"/>
<path d="M31.5567 6.24576C31.5567 6.44915 31.5441 6.66102 31.519 6.88135H26.6608C26.6943 7.32203 26.8324 7.66102 27.0751 7.8983C27.3262 8.12712 27.6316 8.24152 27.9915 8.24152C28.5271 8.24152 28.8995 8.01271 29.1088 7.55508H31.3935C31.2763 8.02118 31.0629 8.44068 30.7533 8.81356C30.452 9.18644 30.0712 9.47881 29.6109 9.69068C29.1506 9.90254 28.6359 10.0085 28.0668 10.0085C27.3806 10.0085 26.7696 9.86017 26.234 9.56356C25.6984 9.26695 25.2799 8.84322 24.9787 8.29237C24.6774 7.74152 24.5267 7.09746 24.5267 6.36017C24.5267 5.62288 24.6732 4.97881 24.9661 4.42796C25.2674 3.87712 25.6858 3.45339 26.2214 3.15678C26.7571 2.86017 27.3722 2.71186 28.0668 2.71186C28.7447 2.71186 29.3473 2.85593 29.8745 3.14407C30.4018 3.4322 30.8119 3.84322 31.1048 4.37712C31.4061 4.91102 31.5567 5.5339 31.5567 6.24576ZM29.3598 5.67373C29.3598 5.30085 29.2343 5.00424 28.9832 4.7839C28.7322 4.56356 28.4183 4.45339 28.0417 4.45339C27.6818 4.45339 27.3764 4.55932 27.1253 4.77119C26.8826 4.98305 26.732 5.2839 26.6734 5.67373H29.3598Z" fill="#222222"/>
<path d="M32.2623 6.34746C32.2623 5.61864 32.3962 4.97881 32.6641 4.42796C32.9402 3.87712 33.3126 3.45339 33.7813 3.15678C34.25 2.86017 34.773 2.71186 35.3505 2.71186C35.8443 2.71186 36.2753 2.81356 36.6435 3.01695C37.0201 3.22034 37.3088 3.48729 37.5097 3.8178V2.81356H39.6564V9.90678H37.5097V8.90254C37.3005 9.23305 37.0076 9.5 36.631 9.70339C36.2627 9.90678 35.8317 10.0085 35.3379 10.0085C34.7689 10.0085 34.25 9.86017 33.7813 9.56356C33.3126 9.25847 32.9402 8.83051 32.6641 8.27966C32.3962 7.72034 32.2623 7.07627 32.2623 6.34746ZM37.5097 6.36017C37.5097 5.8178 37.3591 5.38983 37.0578 5.07627C36.7649 4.76271 36.405 4.60593 35.9782 4.60593C35.5514 4.60593 35.1873 4.76271 34.886 5.07627C34.5931 5.38135 34.4466 5.80508 34.4466 6.34746C34.4466 6.88983 34.5931 7.32203 34.886 7.64407C35.1873 7.95763 35.5514 8.11441 35.9782 8.11441C36.405 8.11441 36.7649 7.95763 37.0578 7.64407C37.3591 7.33051 37.5097 6.90254 37.5097 6.36017Z" fill="#222222"/>
<path d="M45.4901 9.90678L43.356 6.9322V9.90678H41.2094V0.5H43.356V5.69915L45.4776 2.81356H48.1264L45.2139 6.37288L48.1515 9.90678H45.4901Z" fill="#222222"/>
<path d="M56.125 2.81356L51.7313 13.2754H49.4214L51.0283 9.66525L48.1786 2.81356H50.5763L52.1957 7.25L53.8026 2.81356H56.125Z" fill="#222222"/>
<path d="M56.2251 20.5004V9.90723L63.8095 17.5873L59.418 17.6535L56.2251 20.5004Z" fill="#FDE50B"/>
<path fill-rule="evenodd" clip-rule="evenodd" d="M63.8095 17.5873L59.418 17.6535L56.2251 20.5004V9.90723L63.8095 17.5873ZM59.1168 16.8635L57.0097 18.7423V11.8253L58.431 13.2645C58.1993 13.4981 58.0558 13.8215 58.0558 14.1787C58.0558 14.8911 58.6261 15.4687 59.3297 15.4687C59.6825 15.4687 60.0018 15.3234 60.2325 15.0888L61.943 16.8209L59.1168 16.8635ZM59.8722 14.7239L58.7913 13.6294C58.6518 13.7696 58.5654 13.964 58.5654 14.1787C58.5654 14.6062 58.9076 14.9527 59.3297 14.9527C59.5418 14.9527 59.7337 14.8652 59.8722 14.7239Z" fill="#222222"/>
<path d="M58.3173 16.3953C58.3173 16.6147 58.1417 16.7925 57.925 16.7925C57.7084 16.7925 57.5327 16.6147 57.5327 16.3953C57.5327 16.1759 57.7084 15.998 57.925 15.998C58.1417 15.998 58.3173 16.1759 58.3173 16.3953Z" fill="#222222"/>
</svg>
